# xmcd
#
# Track frame offsets:
#	150
#	12132
#	23845
#	36290
#	48765
#	60987
#	73615
#	86060
#	98472
#	111235
#
# Disc length: 1653 seconds
#
# Revision: 1
# Processed by: cddbd v1.5.1PL0 Copyright (c) Steve Scherf et al.
# Submitted via: EasyCDDAExtractor 7.1.0.1
#
DISCID=7106730a
DTITLE=Hank Williams - The Best of Volume 2
DYEAR=2001
DGENRE=Country
TTITLE0=I'll Be a Bachelor Til I Die
TTITLE1=I'm Satisfied With You
TTITLE2=My Sweet Love Ain't Around
TTITLE3=Honky Tonkin
TTITLE4=The Blues Come Around
TTITLE5=Wealth Won't Save Your Soul
TTITLE6=Move It On Over
TTITLE7=Last Night (I Heard You Crying in Your Sleep)
TTITLE8=I Don't Care (If Tommorrow Never Comes)
TTITLE9=Calling You
EXTD=
EXTT0=
EXTT1=
EXTT2=
EXTT3=
EXTT4=
EXTT5=
EXTT6=
EXTT7=
EXTT8=
EXTT9=
PLAYORDER=
